<?xml version="1.0" encoding="UTF-8"?>
<svg version="1.1" xmlns="http://www.w3.org/2000/svg" width="500" height="500">
<path d="M0 0 C0.80763794 -0.01268417 1.61527588 -0.02536835 2.4473877 -0.03843689 C3.31101929 -0.03550125 4.17465088 -0.03256561 5.06445312 -0.02954102 C5.95934448 -0.03478287 6.85423584 -0.04002472 7.77624512 -0.04542542 C9.66576094 -0.05184064 11.55531673 -0.05051507 13.44482422 -0.04199219 C16.33568347 -0.03347678 19.22457002 -0.06225834 22.11523438 -0.09399414 C23.95247337 -0.09560614 25.78971586 -0.09502865 27.62695312 -0.09204102 C28.49058472 -0.10327499 29.35421631 -0.11450897 30.24401855 -0.12608337 C31.05165649 -0.11670242 31.85929443 -0.10732147 32.69140625 -0.09765625 C33.75252625 -0.097407 33.75252625 -0.097407 34.83508301 -0.09715271 C37.95077131 0.67952307 39.00150073 1.76923734 40.84570312 4.40405273 C41.42880046 7.40278983 41.37865154 10.35403701 41.34399414 13.40087891 C41.34951294 14.31049881 41.35503174 15.22011871 41.36071777 16.15730286 C41.37004322 18.13357066 41.37013846 20.10989855 41.36212349 22.0861721 C41.34947942 25.22932578 41.36080231 28.37160268 41.37815857 31.51472473 C41.41036636 38.20704023 41.40988417 44.89917489 41.40820312 51.59155273 C41.41071361 59.30695986 41.4269262 67.02210336 41.46464348 74.73742104 C41.47436197 77.80639325 41.46581986 80.87493111 41.45594788 83.94389343 C41.47434502 101.33149332 41.7602721 120.31862171 54.84570312 133.40405273 C65.0732033 141.4301179 78.45462405 143.42630551 91.16357422 142.17602539 C100.82531077 140.88270601 100.82531077 140.88270601 109.84570312 137.40405273 C110.83570313 137.40405273 111.82570313 137.40405273 112.84570312 137.40405273 C111.97754002 142.83007213 108.45045437 148.3077445 104.84570312 152.40405273 C104.18570313 152.40405273 103.52570313 152.40405273 102.84570312 152.40405273 C102.84570312 153.06405273 102.84570312 153.72405273 102.84570312 154.40405273 C102.18570313 154.40405273 101.52570313 154.40405273 100.84570312 154.40405273 C100.57757813 154.99573242 100.30945313 155.58741211 100.03320312 156.19702148 C92.98611945 169.2943974 74.86789466 177.13081173 61.36523438 181.54077148 C58.53293094 182.27666781 55.72644126 182.89387621 52.84570312 183.40405273 C52.15605469 183.53295898 51.46640625 183.66186523 50.75585938 183.79467773 C48.77919997 184.1018886 46.84238923 184.27948883 44.84570312 184.40405273 C43.40517578 184.50073242 43.40517578 184.50073242 41.93554688 184.59936523 C40.89527344 184.63803711 39.855 184.67670898 38.78320312 184.71655273 C37.34267578 184.77262695 37.34267578 184.77262695 35.87304688 184.82983398 C29.16356254 183.88617748 24.19704346 179.3268135 19.40820312 174.84155273 C18.84472168 174.31489014 18.28124023 173.78822754 17.70068359 173.24560547 C2.56715463 158.75222434 -7.87638037 137.84423083 -8.42172241 116.70399475 C-8.43947739 114.60025004 -8.44660287 112.49639701 -8.44482422 110.39257812 C-8.45154144 109.23526184 -8.45825867 108.07794556 -8.46517944 106.88555908 C-8.48405562 103.09089785 -8.488077 99.29641412 -8.49023438 95.50170898 C-8.49503817 93.52455795 -8.49984581 91.54740687 -8.50515521 89.57025713 C-8.52136659 83.370881 -8.52633004 77.17156287 -8.52490234 70.97216797 C-8.52369604 64.58032411 -8.54491099 58.18881521 -8.57638967 51.79705626 C-8.60565672 45.63432495 -8.61287986 39.47175525 -8.61168289 33.30895805 C-8.61404772 30.69059305 -8.62292042 28.07222573 -8.63834763 25.45390511 C-8.65784916 21.80556999 -8.6522337 18.15811358 -8.64013672 14.50976562 C-8.65137573 13.42352402 -8.66261475 12.33728241 -8.67419434 11.21812439 C-8.66580536 10.22716766 -8.65741638 9.23621094 -8.64877319 8.21522522 C-8.64986273 7.35343186 -8.65095226 6.49163851 -8.65207481 5.6037302 C-8.15429688 3.40405273 -8.15429688 3.40405273 -6.24905586 1.62758446 C-3.93681442 0.277023 -2.65413642 0.0202714 0 0 Z " fill="#0D182F" transform="translate(164.154296875,163.595947265625)"/>
<path d="M0 0 C0.99 0.495 0.99 0.495 2 1 C2.07013345 11.21562929 2.12312783 21.43119942 2.15543652 31.64702225 C2.17095877 36.39286169 2.19194462 41.13853403 2.22631836 45.88427734 C2.25939984 50.48143863 2.27695341 55.07844127 2.28463173 59.67571259 C2.29008923 61.4120101 2.30073975 63.14830095 2.31719017 64.88452911 C2.4631238 80.9557444 1.28179102 97.21888142 -4.0625 112.5 C-4.31837891 113.28246094 -4.57425781 114.06492187 -4.83789062 114.87109375 C-6.01094454 118.39930219 -7.28605491 121.69410858 -9 125 C-9.66 125 -10.32 125 -11 125 C-11.12761719 125.804375 -11.12761719 125.804375 -11.2578125 126.625 C-12.26163995 129.83724786 -13.98046467 132.22412406 -15.875 135 C-16.92300781 136.546875 -16.92300781 136.546875 -17.9921875 138.125 C-18.65476562 139.07375 -19.31734375 140.0225 -20 141 C-20.53882813 141.78375 -21.07765625 142.5675 -21.6328125 143.375 C-22.30957031 144.179375 -22.30957031 144.179375 -23 145 C-23.66 145 -24.32 145 -25 145 C-25 145.66 -25 146.32 -25 147 C-25.66 147 -26.32 147 -27 147 C-27 147.66 -27 148.32 -27 149 C-27.66 149 -28.32 149 -29 149 C-29 149.66 -29 150.32 -29 151 C-42.39638643 162.82611403 -58.67632942 170.92809412 -76 175 C-76.85464844 175.20753906 -77.70929688 175.41507813 -78.58984375 175.62890625 C-97.1404926 179.43484999 -121.76390419 178.6180479 -139 170 C-139.33 169.01 -139.66 168.02 -140 167 C-139.1181604 166.90295776 -139.1181604 166.90295776 -138.21850586 166.80395508 C-117.53231766 164.45393955 -99.05407174 160.08460601 -82.70703125 146.28515625 C-81 145 -81 145 -79 145 C-79 144.34 -79 143.68 -79 143 C-78.34 143 -77.68 143 -77 143 C-77 142.34 -77 141.68 -77 141 C-76.34 141 -75.68 141 -75 141 C-75 140.34 -75 139.68 -75 139 C-74.34 139 -73.68 139 -73 139 C-72.731875 138.443125 -72.46375 137.88625 -72.1875 137.3125 C-70.89100504 134.78774666 -69.57523677 132.36285516 -68 130 C-67.34 130 -66.68 130 -66 130 C-65.01 127.03 -65.01 127.03 -64 124 C-63.34 124 -62.68 124 -62 124 C-61.89429688 123.48953125 -61.78859375 122.9790625 -61.6796875 122.453125 C-60.58065263 118.4864934 -58.94014586 114.6916037 -57.34765625 110.8984375 C-52.48231698 98.52727332 -51.54809727 85.36961857 -51.48828125 72.21875 C-51.47136987 70.78428684 -51.45321141 69.34983791 -51.43388367 67.91540527 C-51.38707629 64.20026102 -51.35682496 60.48517433 -51.33044434 56.76983643 C-51.30028207 52.95451463 -51.25387796 49.1393906 -51.20898438 45.32421875 C-51.12374325 37.88291219 -51.05605346 30.44158989 -51 23 C-50.45323608 22.88864716 -49.90647217 22.77729431 -49.34313965 22.66256714 C-46.84257234 22.15112958 -44.34316904 21.63420626 -41.84375 21.1171875 C-40.98362305 20.9421167 -40.12349609 20.7670459 -39.23730469 20.58666992 C-29.74990841 18.61544027 -21.94959622 15.16033108 -13.54296875 10.3671875 C-11.07876928 9.04234907 -8.61566803 7.98615851 -6 7 C-6 6.34 -6 5.68 -6 5 C-4.04072937 3.2856382 -2.04119788 1.61594832 0 0 Z " fill="#FD9A09" transform="translate(351,187)"/>
<path d="M0 0 C0.63361559 16.68521062 -1.25872051 33.74661125 -5 50 C-5.37898438 51.67255859 -5.37898438 51.67255859 -5.765625 53.37890625 C-10.1682474 70.00881179 -20.90694387 82.54421637 -35.5703125 91.1796875 C-56.58193732 102.33164327 -79.71133951 103.47420349 -103 103 C-101.45228201 98.94071568 -98.81099911 97.00518575 -95.4375 94.375 C-91.66438611 91.64991295 -91.66438611 91.64991295 -89 88 C-88.34 88 -87.68 88 -87 88 C-87 87.34 -87 86.68 -87 86 C-86.34 86 -85.68 86 -85 86 C-85 85.34 -85 84.68 -85 84 C-84.34 84 -83.68 84 -83 84 C-82.7525 83.43539062 -82.505 82.87078125 -82.25 82.2890625 C-80.79476669 79.6241665 -79.01781217 77.64503869 -77 75.375 C-72.87805898 70.42331761 -69.62920254 65.25233407 -66.5 59.625 C-66.066875 58.8520459 -65.63375 58.0790918 -65.1875 57.28271484 C-63.16248115 53.55476547 -61.47791564 50.28417233 -61 46 C-66.5409866 43.47041916 -72.14340094 41.66153012 -78 40 C-78 39.34 -78 38.68 -78 38 C-76.17200336 37.18755705 -74.34398399 36.37516521 -72.51586914 35.56298828 C-70.89749309 34.84345297 -69.27950253 34.12305009 -67.66186523 33.40185547 C-63.60453055 31.59433731 -59.54370782 29.79751807 -55.46484375 28.0390625 C-45.09700575 23.54683018 -35.09974672 18.53235592 -25.15966797 13.16210938 C-23.16647713 12.08958073 -21.16580634 11.03337063 -19.16015625 9.984375 C-14.54645223 7.55332821 -10.06699769 5.17605845 -5.875 2.0625 C-3 0 -3 0 0 0 Z " fill="#FC8807" transform="translate(368,100)"/>
<path d="M0 0 C0.66 0.33 1.32 0.66 2 1 C2.07013345 11.21562929 2.12312783 21.43119942 2.15543652 31.64702225 C2.17095877 36.39286169 2.19194462 41.13853403 2.22631836 45.88427734 C2.25939984 50.48143863 2.27695341 55.07844127 2.28463173 59.67571259 C2.29008923 61.4120101 2.30073975 63.14830095 2.31719017 64.88452911 C2.48143076 82.9718326 0.50227615 100.03754047 -6 117 C-7.09780258 113.73314462 -6.90397745 112.04815558 -5.6328125 108.875 C-3.85255212 103.93320783 -3.28974624 99.21279102 -2.875 94 C-2.11328125 85.11328125 -2.11328125 85.11328125 -1 84 C-0.90501354 81.56603981 -0.87441583 79.16057048 -0.88647461 76.72631836 C-0.88632858 75.96539383 -0.88618256 75.2044693 -0.8860321 74.42048645 C-0.88673138 71.89357702 -0.89452445 69.36674038 -0.90234375 66.83984375 C-0.90420788 65.0924941 -0.9056318 63.34514393 -0.90663147 61.59779358 C-0.91045707 56.98968066 -0.92028771 52.38159905 -0.93133545 47.77349854 C-0.94154866 43.07491479 -0.9461289 38.37632601 -0.95117188 33.67773438 C-0.96190995 24.45180913 -0.97898687 15.22590716 -1 6 C-1.76892578 6.63156006 -2.53785156 7.26312012 -3.33007812 7.91381836 C-5.99253263 9.99416527 -8.40249338 11.24431951 -11.5 12.5625 C-14.3887728 13.79996588 -16.9678812 14.97876483 -19.59375 16.71484375 C-22 18 -22 18 -24.3125 17.6875 C-24.869375 17.460625 -25.42625 17.23375 -26 17 C-23.60588163 15.70506805 -21.2098212 14.41397828 -18.8125 13.125 C-18.13896484 12.76019531 -17.46542969 12.39539063 -16.77148438 12.01953125 C-13.2433872 10.12640594 -9.76544867 8.38919466 -6 7 C-6 6.34 -6 5.68 -6 5 C-4.04072937 3.2856382 -2.04119788 1.61594832 0 0 Z " fill="#F5C567" transform="translate(351,187)"/>
<path d="M0 0 C1.02879148 2.67485785 0.9802834 4.09266804 0.375 6.9375 C-1.21356731 10.47567265 -3.20596531 12.34225968 -6 15 C-6.495 15.9075 -6.99 16.815 -7.5 17.75 C-9 20 -9 20 -11.6875 20.8125 C-12.450625 20.874375 -13.21375 20.93625 -14 21 C-13.79375 21.5775 -13.5875 22.155 -13.375 22.75 C-12.91338739 25.51967567 -13.57055055 26.64561267 -15 29 C-15.99 29 -16.98 29 -18 29 C-19.85494536 30.48481705 -21.49284195 32.11709911 -23.18359375 33.78515625 C-25 35 -25 35 -27.22265625 34.68359375 C-27.80917969 34.45800781 -28.39570313 34.23242188 -29 34 C-28.50628906 33.59007812 -28.01257813 33.18015625 -27.50390625 32.7578125 C-26.86324219 32.21898437 -26.22257812 31.68015625 -25.5625 31.125 C-24.92441406 30.59132812 -24.28632813 30.05765625 -23.62890625 29.5078125 C-21.89194996 28.0777243 -21.89194996 28.0777243 -21 26 C-20.34 26 -19.68 26 -19 26 C-19 25.34 -19 24.68 -19 24 C-18.34 24 -17.68 24 -17 24 C-17 23.34 -17 22.68 -17 22 C-16.34 22 -15.68 22 -15 22 C-14.64035156 21.17435547 -14.64035156 21.17435547 -14.2734375 20.33203125 C-12.70411459 17.4581485 -10.74735823 15.180037 -8.625 12.6875 C-5.23216944 8.61173253 -2.40967122 4.71457414 0 0 Z " fill="#F09742" transform="translate(300,162)"/>
<path d="M0 0 C-0.67407408 4.21296303 -2.77463013 7.42592112 -5 11 C-5.99 11.495 -5.99 11.495 -7 12 C-7.99 11.01 -8.98 10.02 -10 9 C-10.33 9.99 -10.66 10.98 -11 12 C-13.46800047 10.84826645 -15.04783565 9.95216435 -17 8 C-17.66 8 -18.32 8 -19 8 C-19 7.34 -19 6.68 -19 6 C-20.65 6 -22.3 6 -24 6 C-24 5.67 -24 5.34 -24 5 C-22.81921875 4.80664062 -21.6384375 4.61328125 -20.421875 4.4140625 C-18.86452669 4.15137724 -17.30723809 3.88833782 -15.75 3.625 C-14.58404297 3.43550781 -14.58404297 3.43550781 -13.39453125 3.2421875 C-8.81958171 2.46014484 -4.46525675 0 0 0 Z " fill="#243145" transform="translate(277,301)"/>
<path d="M0 0 C0 0.99 0 1.98 0 3 C-0.7425 3.2475 -1.485 3.495 -2.25 3.75 C-5.09866969 4.84296181 -5.09866969 4.84296181 -7.0625 7.125 C-9 9 -9 9 -13 9 C-13 9.66 -13 10.32 -13 11 C-14.2375 11.2475 -15.475 11.495 -16.75 11.75 C-20.57879273 12.68187548 -22.34463471 14.04959413 -25 17 C-25.99 17 -26.98 17 -28 17 C-28 17.66 -28 18.32 -28 19 C-29.11375 19.28875 -30.2275 19.5775 -31.375 19.875 C-35.00291092 20.69241329 -35.00291092 20.69241329 -37 23 C-39.1640625 23.4140625 -39.1640625 23.4140625 -41.625 23.625 C-42.44226563 23.69976562 -43.25953125 23.77453125 -44.1015625 23.8515625 C-44.72804688 23.90054688 -45.35453125 23.94953125 -46 24 C-42.1598049 20.7098869 -37.68236253 18.89043816 -33.125 16.8125 C-24.13654177 12.64026858 -15.63298665 7.96146309 -7.12695312 2.88134766 C-2.2222085 0 -2.2222085 0 0 0 Z " fill="#F29F44" transform="translate(361,104)"/>
<path d="M0 0 C0 0.99 0 1.98 0 3 C-2.97 3 -5.94 3 -9 3 C-9 3.66 -9 4.32 -9 5 C-15.27 5.99 -21.54 6.98 -28 8 C-26.35 8.33 -24.7 8.66 -23 9 C-23 9.66 -23 10.32 -23 11 C-22.37351563 10.96519531 -21.74703125 10.93039062 -21.1015625 10.89453125 C-20.28429687 10.86746094 -19.46703125 10.84039062 -18.625 10.8125 C-17.81289062 10.77769531 -17.00078125 10.74289062 -16.1640625 10.70703125 C-15.44992188 10.80371094 -14.73578125 10.90039062 -14 11 C-13.01 12.485 -13.01 12.485 -12 14 C-19.63244899 13.66228102 -27.05834849 12.31643977 -34 9 C-34.33 8.01 -34.66 7.02 -35 6 C-34.38068604 5.92483154 -33.76137207 5.84966309 -33.12329102 5.7722168 C-30.2684265 5.42018159 -27.41555116 5.05393021 -24.5625 4.6875 C-23.58861328 4.56955078 -22.61472656 4.45160156 -21.61132812 4.33007812 C-16.11925849 3.61372122 -11.13003377 2.58748032 -5.95288086 0.59692383 C-4 0 -4 0 0 0 Z " fill="#EEA058" transform="translate(246,348)"/>
<path d="M0 0 C0.66 0 1.32 0 2 0 C1.67 0.99 1.34 1.98 1 3 C4.29164829 3.02895225 7.58326399 3.0467823 10.875 3.0625 C11.81214844 3.07087891 12.74929688 3.07925781 13.71484375 3.08789062 C14.61074219 3.09111328 15.50664062 3.09433594 16.4296875 3.09765625 C17.25710449 3.10289307 18.08452148 3.10812988 18.93701172 3.11352539 C21.06411757 3.13352138 21.06411757 3.13352138 23 2 C24.5195764 1.84876169 26.04472502 1.75118307 27.5703125 1.68359375 C28.46621094 1.64169922 29.36210937 1.59980469 30.28515625 1.55664062 C31.22230469 1.51732422 32.15945313 1.47800781 33.125 1.4375 C34.06988281 1.39431641 35.01476562 1.35113281 35.98828125 1.30664062 C38.32537092 1.20040928 40.6625683 1.09836824 43 1 C29.53086497 8.0548352 10.81180931 6.13944172 -4 6 C-2.84826645 3.53199953 -1.95216435 1.95216435 0 0 Z " fill="#EC9A60" transform="translate(269,197)"/>
<path d="M0 0 C0.66 0 1.32 0 2 0 C1.44271087 3.34373475 0.64826111 6.03312999 -1 9 C-1.66 9 -2.32 9 -3 9 C-3.28875 9.5775 -3.5775 10.155 -3.875 10.75 C-4.91666667 12.83333333 -5.95833333 14.91666667 -7 17 C-8.65 17 -10.3 17 -12 17 C-12.33 17.99 -12.66 18.98 -13 20 C-14.98 20.33 -16.96 20.66 -19 21 C-14.375 16.125 -14.375 16.125 -11 15 C-11 14.34 -11 13.68 -11 13 C-10.34 13 -9.68 13 -9 13 C-9 12.34 -9 11.68 -9 11 C-8.34 11 -7.68 11 -7 11 C-7 10.34 -7 9.68 -7 9 C-6.34 9 -5.68 9 -5 9 C-4.731875 8.443125 -4.46375 7.88625 -4.1875 7.3125 C-2.89100504 4.78774666 -1.57523677 2.36285516 0 0 Z " fill="#F4A238" transform="translate(283,317)"/>
<path d="M0 0 C0.99 0 1.98 0 3 0 C1.56007449 4.10228779 -0.44493408 7.30398117 -3 10.8125 C-3.70125 11.78832031 -4.4025 12.76414062 -5.125 13.76953125 C-5.74375 14.50558594 -6.3625 15.24164063 -7 16 C-7.66 16 -8.32 16 -9 16 C-9 16.66 -9 17.32 -9 18 C-9.66 18 -10.32 18 -11 18 C-11 18.66 -11 19.32 -11 20 C-11.66 20 -12.32 20 -13 20 C-13 20.66 -13 21.32 -13 22 C-13.66 22 -14.32 22 -15 22 C-15 20.02 -15 18.04 -15 16 C-14.01 16.33 -13.02 16.66 -12 17 C-12 15.35 -12 13.7 -12 12 C-10.02 12 -8.04 12 -6 12 C-5.87625 11.05125 -5.7525 10.1025 -5.625 9.125 C-5 6 -5 6 -3 4 C-2.01 4 -1.02 4 0 4 C0 2.68 0 1.36 0 0 Z " fill="#F3AD42" transform="translate(335,316)"/>
<path d="M0 0 C1.32 0.33 2.64 0.66 4 1 C3.67 1.33 3.34 1.66 3 2 C2.9064081 3.71865409 2.88255389 5.44115744 2.88647461 7.16235352 C2.88655014 8.26341934 2.88662567 9.36448517 2.88670349 10.49891663 C2.89186478 11.6968132 2.89702606 12.89470978 2.90234375 14.12890625 C2.9037587 15.34827377 2.90517365 16.5676413 2.90663147 17.82395935 C2.91225033 21.7368307 2.92480604 25.64964581 2.9375 29.5625 C2.94251257 32.20768147 2.9470759 34.85286383 2.95117188 37.49804688 C2.96222589 43.99871726 2.97898236 50.49935461 3 57 C2.67 57 2.34 57 2 57 C2 42.81 2 28.62 2 14 C1.34 14 0.68 14 0 14 C0 9.38 0 4.76 0 0 Z " fill="#F5A128" transform="translate(300,210)"/>
<path d="M0 0 C0.66 0.33 1.32 0.66 2 1 C-1.82623391 6.82991261 -5.34271572 11.8605237 -11 16 C-10.67 14.02 -10.34 12.04 -10 10 C-9.01 10 -8.02 10 -7 10 C-7 8.68 -7 7.36 -7 6 C-7.66 6 -8.32 6 -9 6 C-8.67 4.68 -8.34 3.36 -8 2 C-5.33333333 2 -2.66666667 2 0 2 C0 1.34 0 0.68 0 0 Z " fill="#FA9A09" transform="translate(354,167)"/>
<path d="M0 0 C0.33 0 0.66 0 1 0 C1.02505615 1.05276123 1.0501123 2.10552246 1.07592773 3.19018555 C1.17128341 7.15821097 1.27117163 11.12611237 1.37231445 15.09399414 C1.41518574 16.79969346 1.4568858 18.50542268 1.49731445 20.21118164 C1.73428325 30.17264766 2.08760143 40.07332751 3 50 C2.505 48.515 2.505 48.515 2 47 C0.515 47.495 0.515 47.495 -1 48 C-0.67 32.16 -0.34 16.32 0 0 Z " fill="#10192A" transform="translate(204,227)"/>
<path d="M0 0 C-1.86587723 1.32543706 -3.74314233 2.63485156 -5.625 3.9375 C-6.66914063 4.66839844 -7.71328125 5.39929688 -8.7890625 6.15234375 C-12.00598969 8.00344662 -14.33705863 8.65350555 -18 9 C-18 6.69 -18 4.38 -18 2 C-17.34 1.67 -16.68 1.34 -16 1 C-14.33032028 1.6590841 -12.66392045 2.32650839 -11 3 C-9.68 3 -8.36 3 -7 3 C-7 2.01 -7 1.02 -7 0 C-3.86650268 -1.04449911 -3.01031744 -0.93423645 0 0 Z " fill="#F6971B" transform="translate(316,343)"/>
<path d="M0 0 C-3.73249365 4.29802299 -6.47785638 5.76227815 -12 7 C-13.258125 7.37125 -14.51625 7.7425 -15.8125 8.125 C-19 9 -19 9 -21 9 C-21 9.66 -21 10.32 -21 11 C-19.35 11.33 -17.7 11.66 -16 12 C-18.78823655 13.0326802 -19.8677274 13.04509293 -22.75 12.0625 C-23.4925 11.711875 -24.235 11.36125 -25 11 C-25 10.34 -25 9.68 -25 9 C-22.10485806 7.70677968 -19.20876516 6.41570259 -16.3125 5.125 C-15.49587891 4.76019531 -14.67925781 4.39539063 -13.83789062 4.01953125 C-11.5616884 3.00583795 -9.2813705 2.00199283 -7 1 C-6.02417969 0.56429687 -5.04835938 0.12859375 -4.04296875 -0.3203125 C-2 -1 -2 -1 0 0 Z " fill="#EA8E44" transform="translate(315,129)"/>
<path d="M0 0 C0.66 0.66 1.32 1.32 2 2 C1.34 3.32 0.68 4.64 0 6 C-0.99 6 -1.98 6 -3 6 C-4.85494536 7.48481705 -6.49284195 9.11709911 -8.18359375 10.78515625 C-10 12 -10 12 -12.22265625 11.68359375 C-12.80917969 11.45800781 -13.39570313 11.23242188 -14 11 C-13.50628906 10.59007812 -13.01257813 10.18015625 -12.50390625 9.7578125 C-11.86324219 9.21898437 -11.22257812 8.68015625 -10.5625 8.125 C-9.92441406 7.59132812 -9.28632813 7.05765625 -8.62890625 6.5078125 C-6.89194996 5.0777243 -6.89194996 5.0777243 -6 3 C-5.34 3 -4.68 3 -4 3 C-4 2.34 -4 1.68 -4 1 C-2.125 0.375 -2.125 0.375 0 0 Z " fill="#F48124" transform="translate(285,185)"/>
<path d="M0 0 C0.33 0.66 0.66 1.32 1 2 C3.02463255 2.65213292 3.02463255 2.65213292 5 3 C2.7516034 4.46085662 0.50137827 5.91875136 -1.75 7.375 C-2.70132812 7.99375 -2.70132812 7.99375 -3.671875 8.625 C-11.99445565 14 -11.99445565 14 -16 14 C-16 13.34 -16 12.68 -16 12 C-14.68 12 -13.36 12 -12 12 C-12 11.34 -12 10.68 -12 10 C-11.34 10 -10.68 10 -10 10 C-9.67 9.01 -9.34 8.02 -9 7 C-7.02 7 -5.04 7 -3 7 C-2.67 6.01 -2.34 5.02 -2 4 C-1.34 3.67 -0.68 3.34 0 3 C0 2.01 0 1.02 0 0 Z " fill="#F2A945" transform="translate(338,181)"/>
<path d="M0 0 C-0.474375 0.45375 -0.94875 0.9075 -1.4375 1.375 C-3.09027808 2.93258204 -3.09027808 2.93258204 -4 5 C-5.98 5 -7.96 5 -10 5 C-10 4.34 -10 3.68 -10 3 C-13.3 2.67 -16.6 2.34 -20 2 C-20 1.67 -20 1.34 -20 1 C-19.02417969 0.93941406 -18.04835937 0.87882812 -17.04296875 0.81640625 C-15.77066406 0.73261719 -14.49835938 0.64882813 -13.1875 0.5625 C-11.92292969 0.48128906 -10.65835938 0.40007812 -9.35546875 0.31640625 C-1.323049 -0.44101633 -1.323049 -0.44101633 0 0 Z " fill="#F77D0E" transform="translate(233,354)"/>
<path d="M0 0 C-8.00856906 4.5060034 -18.05372347 4.31699405 -27 4 C-27 3.67 -27 3.34 -27 3 C-18.39438483 -0.07343399 -9.05793115 -0.08272083 0 0 Z " fill="#F0A356" transform="translate(312,198)"/>
<path d="M0 0 C0.14368684 8.71700174 -0.28038418 17.31320899 -1 26 C-1.33 26 -1.66 26 -2 26 C-2.02714434 23.2915983 -2.04690846 20.58347279 -2.0625 17.875 C-2.07506836 16.73417969 -2.07506836 16.73417969 -2.08789062 15.5703125 C-2.10646509 11.2610356 -1.86117265 7.24483526 -1 3 C-2.98 3.33 -4.96 3.66 -7 4 C-3.375 0 -3.375 0 0 0 Z " fill="#F2B767" transform="translate(368,100)"/>
<path d="M0 0 C2.97 0.33 5.94 0.66 9 1 C9 1.66 9 2.32 9 3 C9.62648437 2.96519531 10.25296875 2.93039062 10.8984375 2.89453125 C11.71570313 2.86746094 12.53296875 2.84039062 13.375 2.8125 C14.18710938 2.77769531 14.99921875 2.74289062 15.8359375 2.70703125 C16.55007812 2.80371094 17.26421875 2.90039062 18 3 C18.99 4.485 18.99 4.485 20 6 C12.63904818 5.68676801 6.69116911 4.06085395 0 1 C0 0.67 0 0.34 0 0 Z " fill="#ED953F" transform="translate(214,356)"/>
<path d="M0 0 C4.29 0 8.58 0 13 0 C12.67 1.32 12.34 2.64 12 4 C12 4.99 12 5.98 12 7 C9 5 9 5 7 3 C6.34 3 5.68 3 5 3 C5 2.34 5 1.68 5 1 C3.35 1 1.7 1 0 1 C0 0.67 0 0.34 0 0 Z " fill="#273145" transform="translate(253,306)"/>
<path d="M0 0 C0.66 0.99 1.32 1.98 2 3 C1.67 3.99 1.34 4.98 1 6 C-2.12290635 5.51421457 -4.99580359 5.0013988 -8 4 C-8 3.34 -8 2.68 -8 2 C-5.36 1.34 -2.72 0.68 0 0 Z " fill="#F87508" transform="translate(302,136)"/>
<path d="M0 0 C0.66 0.33 1.32 0.66 2 1 C0.625 3.5 0.625 3.5 -1 6 C-1.66 6 -2.32 6 -3 6 C-3.33 6.99 -3.66 7.98 -4 9 C-5.98 9.33 -7.96 9.66 -10 10 C-5.375 5.125 -5.375 5.125 -2 4 C-2 3.34 -2 2.68 -2 2 C-1.34 2 -0.68 2 0 2 C0 1.34 0 0.68 0 0 Z " fill="#F2A647" transform="translate(274,328)"/>
<path d="M0 0 C0.99 0.33 1.98 0.66 3 1 C3 2.65 3 4.3 3 6 C2.34 6 1.68 6 1 6 C1 6.66 1 7.32 1 8 C0.34 8 -0.32 8 -1 8 C-1 8.66 -1 9.32 -1 10 C-1.66 10 -2.32 10 -3 10 C-3 8.02 -3 6.04 -3 4 C-2.01 4.33 -1.02 4.66 0 5 C0 3.35 0 1.7 0 0 Z " fill="#F4A72B" transform="translate(323,328)"/>
<path d="M0 0 C0.33 0 0.66 0 1 0 C1.02505615 0.59014893 1.0501123 1.18029785 1.07592773 1.78833008 C1.19200052 4.46326814 1.31467572 7.1378638 1.4375 9.8125 C1.47681641 10.74126953 1.51613281 11.67003906 1.55664062 12.62695312 C1.59853516 13.51962891 1.64042969 14.41230469 1.68359375 15.33203125 C1.72025146 16.15421143 1.75690918 16.9763916 1.79467773 17.82348633 C1.93427772 20.17905178 1.93427772 20.17905178 3 23 C2.01 23.66 1.02 24.32 0 25 C0 16.75 0 8.5 0 0 Z " fill="#070D1E" transform="translate(157,252)"/>
<path d="M0 0 C1.05902319 2.7534603 0.97095435 4.12938515 0.3125 7.0625 C-1.07097062 10.15883902 -2.13597554 11.28158532 -5 13 C-3.91343356 8.06866002 -2.8990762 4.21683811 0 0 Z " fill="#F39132" transform="translate(300,162)"/>
<path d="M0 0 C0.66 0.33 1.32 0.66 2 1 C-1.85623679 5.82029598 -1.85623679 5.82029598 -5.11328125 6.33203125 C-7.07856214 6.3145776 -9.04166127 6.16596091 -11 6 C-7.57874946 3.12614955 -4.16111563 1.54115394 0 0 Z " fill="#F2A04F" transform="translate(313,128)"/>
<path d="M0 0 C1.125 3.75 1.125 3.75 0 6 C0.66 6.33 1.32 6.66 2 7 C1 9 1 9 -2.0625 10.125 C-3.031875 10.41375 -4.00125 10.7025 -5 11 C-3.55049545 7.2089881 -1.84827434 3.6125362 0 0 Z " fill="#EF993E" transform="translate(306,151)"/>
<path d="M0 0 C-1.45449401 1.0055761 -2.91372443 2.00430435 -4.375 3 C-5.59316406 3.8353125 -5.59316406 3.8353125 -6.8359375 4.6875 C-9 6 -9 6 -11 6 C-11 5.01 -11 4.02 -11 3 C-9.68 3 -8.36 3 -7 3 C-7 2.01 -7 1.02 -7 0 C-3.86650268 -1.04449911 -3.01031744 -0.93423645 0 0 Z " fill="#F1B157" transform="translate(316,343)"/>
<path d="M0 0 C0.66 0 1.32 0 2 0 C2 0.99 2 1.98 2 3 C-1.01490557 4.00496852 -3.04181692 4.10335303 -6.1875 4.0625 C-7.53908203 4.04896484 -7.53908203 4.04896484 -8.91796875 4.03515625 C-9.60503906 4.02355469 -10.29210937 4.01195312 -11 4 C-8.70176341 1.70176341 -8.05119118 1.70309616 -4.9375 1.4375 C-1.23263383 1.44086552 -1.23263383 1.44086552 0 0 Z " fill="#F7A82C" transform="translate(330,203)"/>
<path d="M0 0 C-1.38009621 3.33523252 -2.84950652 5.18607951 -6 7 C-6.99 6.67 -7.98 6.34 -9 6 C-8.67 5.34 -8.34 4.68 -8 4 C-7.34 4 -6.68 4 -6 4 C-6 3.34 -6 2.68 -6 2 C-3 0 -3 0 0 0 Z " fill="#F7AE34" transform="translate(351,190)"/>
<path d="M0 0 C0.66 0.33 1.32 0.66 2 1 C0.85821872 2.66944521 -0.28852905 4.3354948 -1.4375 6 C-2.07558594 6.928125 -2.71367187 7.85625 -3.37109375 8.8125 C-3.90863281 9.534375 -4.44617188 10.25625 -5 11 C-5.33 11 -5.66 11 -6 11 C-6 9.35 -6 7.7 -6 6 C-4.68 5.67 -3.36 5.34 -2 5 C-2 4.01 -2 3.02 -2 2 C-1.34 2 -0.68 2 0 2 C0 1.34 0 0.68 0 0 Z " fill="#F2B553" transform="translate(354,167)"/>
<path d="M0 0 C0 0.99 0 1.98 0 3 C-2.39763185 5.39763185 -3.33273498 5.34280586 -6.625 5.625 C-7.44226563 5.69976562 -8.25953125 5.77453125 -9.1015625 5.8515625 C-9.72804688 5.90054688 -10.35453125 5.94953125 -11 6 C-7.58983503 3.13546142 -4.09305456 1.65296434 0 0 Z " fill="#F09E4C" transform="translate(326,122)"/>
<path d="M0 0 C1.43410153 3.78819273 0.51009497 6.06521279 -0.9375 9.75 C-1.31777344 10.73484375 -1.69804687 11.7196875 -2.08984375 12.734375 C-2.39019531 13.48203125 -2.69054687 14.2296875 -3 15 C-4.15782198 11.61915982 -3.83835147 9.70336781 -2.625 6.375 C-2.34914063 5.59898437 -2.07328125 4.82296875 -1.7890625 4.0234375 C-1 2 -1 2 0 0 Z " fill="#EEB24D" transform="translate(348,289)"/>
<path d="M0 0 C0.33 0 0.66 0 1 0 C1.33 4.29 1.66 8.58 2 13 C1.67 12.01 1.34 11.02 1 10 C0.01 10.33 -0.98 10.66 -2 11 C-2.25 3.375 -2.25 3.375 0 0 Z " fill="#5D6375" transform="translate(205,264)"/>
<path d="M0 0 C2.81484045 1.40742022 3.27483399 3.25557592 4.625 6.0625 C5.07101563 6.98160156 5.51703125 7.90070313 5.9765625 8.84765625 C6.31429687 9.55792969 6.65203125 10.26820313 7 11 C6.01 11 5.02 11 4 11 C4 10.01 4 9.02 4 8 C2.68 7.34 1.36 6.68 0 6 C0 4.02 0 2.04 0 0 Z " fill="#686E7B" transform="translate(209,284)"/>
<path d="M0 0 C2.64 0 5.28 0 8 0 C7.67 0.99 7.34 1.98 7 3 C4.08517222 3.80967438 2.53886783 4.21845993 -0.3125 3.0625 C-0.869375 2.711875 -1.42625 2.36125 -2 2 C-1.34 2 -0.68 2 0 2 C0 1.34 0 0.68 0 0 Z " fill="#343F4B" transform="translate(227,339)"/>
<path d="M0 0 C-1.65 1.65 -3.3 3.3 -5 5 C-5.99 4.67 -6.98 4.34 -8 4 C-7.67 3.01 -7.34 2.02 -7 1 C-4.53721199 -0.231394 -2.7204945 -0.07159196 0 0 Z " fill="#4D5360" transform="translate(257,327)"/>
<path d="M0 0 C0.33 0 0.66 0 1 0 C1.33 2.31 1.66 4.62 2 7 C-0.475 8.485 -0.475 8.485 -3 10 C-2.01 6.7 -1.02 3.4 0 0 Z " fill="#F5B751" transform="translate(295,294)"/>
<path d="M0 0 C-0.61277612 2.96175123 -1.25372522 4.38058783 -3 7 C-3.66 6.01 -4.32 5.02 -5 4 C-5.66 3.34 -6.32 2.68 -7 2 C-4.35261084 0.5393715 -3.10551666 0 0 0 Z " fill="#69707B" transform="translate(277,301)"/>
<path d="M0 0 C2.97 0 5.94 0 9 0 C5.55549263 2.29633824 3.06187717 2.54016485 -1 3 C-0.67 2.01 -0.34 1.02 0 0 Z " fill="#F3AF60" transform="translate(313,195)"/>
<path d="M0 0 C0.33 0.99 0.66 1.98 1 3 C-0.25 4.5625 -0.25 4.5625 -2 6 C-4.1875 5.6875 -4.1875 5.6875 -6 5 C-4.02 3.35 -2.04 1.7 0 0 Z " fill="#EC8C4C" transform="translate(277,191)"/>
<path d="M0 0 C1 3 1 3 0.3125 5.125 C-1 7 -1 7 -3.125 7.75 C-4.053125 7.87375 -4.053125 7.87375 -5 8 C-1.125 1.125 -1.125 1.125 0 0 Z " fill="#F29F55" transform="translate(295,170)"/>
<path d="M0 0 C1.0326802 2.78823655 1.04509293 3.8677274 0.0625 6.75 C-0.288125 7.4925 -0.63875 8.235 -1 9 C-1.99 9 -2.98 9 -4 9 C-4 8.34 -4 7.68 -4 7 C-3.34 7 -2.68 7 -2 7 C-1.855625 6.401875 -1.71125 5.80375 -1.5625 5.1875 C-1.1127561 3.43849596 -0.57107659 1.71322977 0 0 Z " fill="#F2B353" transform="translate(291,304)"/>
<path d="M0 0 C1.98 0 3.96 0 6 0 C6 0.66 6 1.32 6 2 C4.35 2.66 2.7 3.32 1 4 C0.67 2.68 0.34 1.36 0 0 Z " fill="#283447" transform="translate(246,307)"/>
<path d="M0 0 C1.98 0.495 1.98 0.495 4 1 C2.35 2.65 0.7 4.3 -1 6 C-0.67 4.02 -0.34 2.04 0 0 Z " fill="#F3B03E" transform="translate(344,177)"/>
</svg>
